<svg width="18" height="18" viewBox="0 0 18 18" fill="none" xmlns="http://www.w3.org/2000/svg">
<path d="M5.40719 3.96296C5.0897 3.96296 4.83234 4.22828 4.83234 4.55556C4.83234 4.88284 5.0897 5.14815 5.40719 5.14815H6.36527C6.68275 5.14815 6.94012 4.88284 6.94012 4.55556C6.94012 4.22828 6.68275 3.96296 6.36527 3.96296H5.40719Z" fill="#121224"/>
<path d="M4.83234 7.51852C4.83234 7.19124 5.0897 6.92593 5.40719 6.92593H6.36527C6.68275 6.92593 6.94012 7.19124 6.94012 7.51852C6.94012 7.8458 6.68275 8.11111 6.36527 8.11111H5.40719C5.0897 8.11111 4.83234 7.8458 4.83234 7.51852Z" fill="#121224"/>
<path d="M5.40719 9.88889C5.0897 9.88889 4.83234 10.1542 4.83234 10.4815C4.83234 10.8088 5.0897 11.0741 5.40719 11.0741H6.36527C6.68275 11.0741 6.94012 10.8088 6.94012 10.4815C6.94012 10.1542 6.68275 9.88889 6.36527 9.88889H5.40719Z" fill="#121224"/>
<path d="M7.70659 4.55556C7.70659 4.22828 7.96396 3.96296 8.28144 3.96296H9.23952C9.557 3.96296 9.81437 4.22828 9.81437 4.55556C9.81437 4.88284 9.557 5.14815 9.23952 5.14815H8.28144C7.96396 5.14815 7.70659 4.88284 7.70659 4.55556Z" fill="#121224"/>
<path d="M8.28144 6.92593C7.96396 6.92593 7.70659 7.19124 7.70659 7.51852C7.70659 7.8458 7.96396 8.11111 8.28144 8.11111H9.23952C9.557 8.11111 9.81437 7.8458 9.81437 7.51852C9.81437 7.19124 9.557 6.92593 9.23952 6.92593H8.28144Z" fill="#121224"/>
<path d="M7.70659 10.4815C7.70659 10.1542 7.96396 9.88889 8.28144 9.88889H9.23952C9.557 9.88889 9.81437 10.1542 9.81437 10.4815C9.81437 10.8088 9.557 11.0741 9.23952 11.0741H8.28144C7.96396 11.0741 7.70659 10.8088 7.70659 10.4815Z" fill="#121224"/>
<path fill-rule="evenodd" clip-rule="evenodd" d="M1.57485 17C1.25737 17 1 16.7347 1 16.4074C1 16.0801 1.25737 15.8148 1.57485 15.8148H2.91617V2.08642C2.91617 1.48641 3.38801 1 3.97006 1H10.6766C11.2587 1 11.7305 1.48641 11.7305 2.08642V3.15741L14.879 4.37453C15.2904 4.53354 15.5629 4.93891 15.5629 5.39178V15.8148H16.4251C16.7426 15.8148 17 16.0801 17 16.4074C17 16.7347 16.7426 17 16.4251 17H1.57485ZM4.06587 15.8148V2.18519H10.5808V15.8148H8.85629V13.5432C8.85629 13.1614 8.55602 12.8519 8.18563 12.8519H6.46108C6.09068 12.8519 5.79042 13.1614 5.79042 13.5432V15.8148H4.06587ZM6.94012 15.8148H7.70659V14.037H6.94012V15.8148ZM11.7305 15.8148L11.7305 4.42319L14.4132 5.46022V15.8148H11.7305Z" fill="#121224"/>
</svg>
