<svg width="14" height="14" viewBox="0 0 14 14" fill="none" xmlns="http://www.w3.org/2000/svg">
<path d="M6.99992 6.33301C6.82311 6.33301 6.65354 6.40325 6.52852 6.52827C6.40349 6.65329 6.33326 6.82286 6.33326 6.99967V9.66634C6.33326 9.84315 6.40349 10.0127 6.52852 10.1377C6.65354 10.2628 6.82311 10.333 6.99992 10.333C7.17673 10.333 7.3463 10.2628 7.47133 10.1377C7.59635 10.0127 7.66659 9.84315 7.66659 9.66634V6.99967C7.66659 6.82286 7.59635 6.65329 7.47133 6.52827C7.3463 6.40325 7.17673 6.33301 6.99992 6.33301ZM7.25326 3.71967C7.09095 3.653 6.9089 3.653 6.74659 3.71967C6.66475 3.7514 6.58999 3.79898 6.52659 3.85967C6.4677 3.92448 6.42035 3.99888 6.38659 4.07967C6.34927 4.15879 6.331 4.24556 6.33326 4.33301C6.33275 4.42075 6.34957 4.50772 6.38274 4.58895C6.41592 4.67017 6.4648 4.74405 6.52659 4.80634C6.59139 4.86523 6.6658 4.91258 6.74659 4.94634C6.84759 4.98783 6.95723 5.00389 7.06589 4.99308C7.17454 4.98228 7.27888 4.94496 7.36973 4.88439C7.46058 4.82382 7.53517 4.74186 7.58693 4.64572C7.63869 4.54958 7.66604 4.4422 7.66659 4.33301C7.66413 4.1565 7.59508 3.98743 7.47326 3.85967C7.40985 3.79898 7.33509 3.7514 7.25326 3.71967ZM6.99992 0.333008C5.68138 0.333008 4.39245 0.724001 3.29612 1.45654C2.19979 2.18909 1.34531 3.23028 0.840725 4.44845C0.336141 5.66663 0.204118 7.00707 0.461353 8.30028C0.718588 9.59348 1.35353 10.7814 2.28588 11.7137C3.21823 12.6461 4.40611 13.281 5.69932 13.5382C6.99253 13.7955 8.33297 13.6635 9.55115 13.1589C10.7693 12.6543 11.8105 11.7998 12.5431 10.7035C13.2756 9.60715 13.6666 8.31822 13.6666 6.99967C13.6666 6.1242 13.4942 5.25729 13.1591 4.44845C12.8241 3.63961 12.333 2.90469 11.714 2.28563C11.0949 1.66657 10.36 1.17551 9.55115 0.840478C8.74231 0.505446 7.8754 0.333008 6.99992 0.333008ZM6.99992 12.333C5.94509 12.333 4.91394 12.0202 4.03688 11.4342C3.15982 10.8481 2.47623 10.0152 2.07256 9.04065C1.6689 8.06611 1.56328 6.99376 1.76907 5.95919C1.97485 4.92463 2.48281 3.97432 3.22869 3.22844C3.97457 2.48256 4.92487 1.97461 5.95944 1.76882C6.99401 1.56303 8.06636 1.66865 9.0409 2.07232C10.0154 2.47598 10.8484 3.15957 11.4344 4.03663C12.0205 4.9137 12.3333 5.94484 12.3333 6.99967C12.3333 8.41416 11.7714 9.77072 10.7712 10.7709C9.77096 11.7711 8.41441 12.333 6.99992 12.333Z" fill="#717B9E"/>
</svg>
