<svg width="19" height="16" viewBox="0 0 19 16" fill="none" xmlns="http://www.w3.org/2000/svg">
<path fill-rule="evenodd" clip-rule="evenodd" d="M0 5.68432V14.5265C0 14.9173 0.154937 15.292 0.431967 15.5682C0.708142 15.8452 1.08286 16.0001 1.47365 16.0001H16.6317C17.0224 16.0001 17.3972 15.8452 17.6733 15.5682C17.9504 15.292 18.1053 14.9173 18.1053 14.5265V5.68432C18.1053 5.33568 17.8224 5.05273 17.4737 5.05273C17.1251 5.05273 16.8421 5.33568 16.8421 5.68432V14.5265C16.8421 14.582 16.8203 14.636 16.7807 14.6755C16.7411 14.7151 16.6872 14.737 16.6317 14.737H1.47365C1.4181 14.737 1.3641 14.7151 1.32463 14.6755C1.28502 14.6359 1.26317 14.582 1.26317 14.5265V5.68432C1.26317 5.33568 0.980225 5.05273 0.631584 5.05273C0.282942 5.05273 0 5.33568 0 5.68432Z" fill="#121224"/>
<path fill-rule="evenodd" clip-rule="evenodd" d="M18.1053 5.68408V4.42091C18.1053 3.60664 17.4451 2.94727 16.6317 2.94727H1.47365C0.660203 2.94727 0 3.60664 0 4.42091V5.68408C0 7.42812 1.41388 8.842 3.15792 8.842H14.9476C16.6916 8.842 18.1055 7.42812 18.1055 5.68408H18.1053ZM16.8421 4.42091V5.68408C16.8421 6.73085 15.9942 7.57883 14.9474 7.57883H3.1577C2.11093 7.57883 1.26295 6.73085 1.26295 5.68408V4.42091C1.26295 4.30474 1.35727 4.21043 1.47343 4.21043H16.6314C16.7476 4.21043 16.8419 4.30475 16.8419 4.42091H16.8421Z" fill="#121224"/>
<path fill-rule="evenodd" clip-rule="evenodd" d="M14.3164 2.31586C14.3164 1.70188 14.0722 1.11245 13.6384 0.67796C13.204 0.244296 12.6144 0 12.0006 0H6.10589C5.49192 0 4.90249 0.244174 4.468 0.67796C4.03434 1.11245 3.79004 1.70203 3.79004 2.31586V3.57902C3.79004 3.92766 4.07298 4.21061 4.42162 4.21061H13.685C14.0336 4.21061 14.3166 3.92766 14.3166 3.57902L14.3164 2.31586ZM13.0532 2.31586V2.94744H5.05306V2.31586C5.05306 2.03629 5.16415 1.76926 5.36124 1.57149C5.55918 1.3744 5.82605 1.26331 6.10561 1.26331H12.0003C12.2798 1.26331 12.5469 1.3744 12.7446 1.57149C12.9417 1.76942 13.0528 2.0363 13.0528 2.31586H13.0532Z" fill="#121224"/>
<path fill-rule="evenodd" clip-rule="evenodd" d="M12.6328 7.3684V9.47363C12.6328 9.82227 12.9158 10.1052 13.2644 10.1052C13.613 10.1052 13.896 9.82227 13.896 9.47363V7.3684C13.896 7.01976 13.613 6.73682 13.2644 6.73682C12.9158 6.73682 12.6328 7.01976 12.6328 7.3684Z" fill="#121224"/>
<path fill-rule="evenodd" clip-rule="evenodd" d="M4.20996 7.3684V9.47363C4.20996 9.82227 4.4929 10.1052 4.84154 10.1052C5.19019 10.1052 5.47313 9.82227 5.47313 9.47363V7.3684C5.47313 7.01976 5.19019 6.73682 4.84154 6.73682C4.4929 6.73682 4.20996 7.01976 4.20996 7.3684Z" fill="#121224"/>
</svg>
