<svg width="12" height="12" viewBox="0 0 12 12" fill="none" xmlns="http://www.w3.org/2000/svg">
<path fill-rule="evenodd" clip-rule="evenodd" d="M6.47559 0.436202C6.38625 0.255208 6.20191 0.140625 6.00007 0.140625C5.79822 0.140625 5.61388 0.255208 5.52454 0.436202L4.00918 3.50616L0.620367 4.00148C0.420677 4.03067 0.254863 4.17067 0.192618 4.36265C0.130372 4.55462 0.182486 4.76528 0.327056 4.90609L2.77875 7.29404L2.20014 10.6676C2.16602 10.8666 2.24781 11.0676 2.41113 11.1863C2.57446 11.3049 2.79097 11.3205 2.96964 11.2266L6.00007 9.63292L9.03049 11.2266C9.20916 11.3205 9.42568 11.3049 9.589 11.1863C9.75232 11.0676 9.83411 10.8666 9.79999 10.6676L9.22139 7.29404L11.6731 4.90609C11.8176 4.76528 11.8698 4.55462 11.8075 4.36265C11.7453 4.17067 11.5795 4.03067 11.3798 4.00148L7.99095 3.50616L6.47559 0.436202Z" fill="#FFC000"/>
</svg>
